<svg xmlns="http://www.w3.org/2000/svg" xmlns:xlink="http://www.w3.org/1999/xlink" width="510" zoomAndPan="magnify" viewBox="0 0 382.5 359.999987" height="480" preserveAspectRatio="xMidYMid meet" version="1.0"><defs><clipPath id="09d5b3a06e"><path d="M 251 133.011719 L 354 133.011719 L 354 194 L 251 194 Z M 251 133.011719 " clip-rule="nonzero"/></clipPath><clipPath id="c37e89c6c8"><path d="M 23.296875 152 L 110 152 L 110 189 L 23.296875 189 Z M 23.296875 152 " clip-rule="nonzero"/></clipPath><clipPath id="c6ccd20bb2"><path d="M 28 182 L 358.859375 182 L 358.859375 249.113281 L 28 249.113281 Z M 28 182 " clip-rule="nonzero"/></clipPath></defs><g clip-path="url(#09d5b3a06e)"><path fill="#5fa1ea" d="M 275.605469 193.574219 C 273.519531 193.574219 271.476562 193.339844 269.492188 192.867188 C 262.105469 191.089844 256.46875 186.359375 252.386719 182.4375 C 251.605469 181.6875 251.582031 180.445312 252.332031 179.667969 C 253.078125 178.886719 254.320312 178.863281 255.101562 179.613281 C 260.640625 184.929688 265.355469 187.84375 270.410156 189.058594 C 279.671875 191.28125 290.707031 187.285156 299.933594 178.367188 C 304.914062 173.546875 309.136719 167.785156 313.222656 162.210938 C 315.851562 158.621094 318.574219 154.910156 321.503906 151.429688 C 331.085938 140.046875 341.257812 133.898438 351.734375 133.160156 C 352.820312 133.082031 353.753906 133.894531 353.828125 134.972656 C 353.90625 136.050781 353.089844 136.992188 352.011719 137.066406 C 342.628906 137.730469 333.375 143.410156 324.5 153.949219 C 321.65625 157.328125 318.976562 160.984375 316.382812 164.523438 C 312.203125 170.230469 307.878906 176.128906 302.660156 181.175781 C 294.378906 189.1875 284.640625 193.570312 275.609375 193.570312 Z M 275.605469 193.574219 " fill-opacity="1" fill-rule="nonzero"/></g><path fill="#5fa1ea" d="M 146.902344 200.375 C 144.730469 200.375 142.507812 200.246094 140.230469 199.980469 C 139.15625 199.855469 138.386719 198.882812 138.511719 197.808594 C 138.636719 196.734375 139.609375 195.964844 140.683594 196.089844 C 150.023438 197.164062 158.363281 195.867188 165.484375 192.222656 C 172.898438 188.429688 178.613281 182.371094 184.664062 175.957031 C 186.6875 173.808594 188.785156 171.585938 190.925781 169.484375 C 201.945312 158.679688 213.171875 153.835938 223.375 155.472656 C 227.835938 156.191406 232.089844 158.082031 236.378906 161.25 C 237.25 161.894531 237.433594 163.121094 236.789062 163.992188 C 236.148438 164.859375 234.921875 165.042969 234.050781 164.402344 C 230.277344 161.613281 226.582031 159.957031 222.757812 159.347656 C 211.472656 157.53125 200.710938 165.382812 193.667969 172.289062 C 191.582031 174.332031 189.515625 176.527344 187.511719 178.648438 C 181.5 185.023438 175.28125 191.617188 167.265625 195.714844 C 161.203125 198.820312 154.375 200.378906 146.898438 200.378906 Z M 146.902344 200.375 " fill-opacity="1" fill-rule="nonzero"/><g clip-path="url(#c37e89c6c8)"><path fill="#5fa1ea" d="M 107.933594 188.101562 C 107.601562 188.101562 107.261719 188.015625 106.949219 187.835938 C 101.59375 184.714844 96.339844 181.246094 91.261719 177.890625 C 85.394531 174.019531 79.332031 170.015625 73.128906 166.566406 C 60.964844 159.800781 42.914062 152.75 26.011719 157.574219 C 24.976562 157.871094 23.890625 157.269531 23.589844 156.226562 C 23.292969 155.183594 23.898438 154.101562 24.941406 153.804688 C 39.339844 149.695312 56.660156 152.921875 75.035156 163.136719 C 81.367188 166.660156 87.496094 170.703125 93.421875 174.617188 C 98.453125 177.941406 103.664062 181.378906 108.921875 184.445312 C 109.859375 184.988281 110.171875 186.1875 109.628906 187.125 C 109.261719 187.746094 108.609375 188.097656 107.929688 188.097656 Z M 107.933594 188.101562 " fill-opacity="1" fill-rule="nonzero"/></g><path fill="#3a81d0" d="M 279.023438 218.320312 C 276.929688 218.320312 274.871094 218.085938 272.878906 217.605469 C 263.046875 215.242188 255.972656 207.644531 249.128906 200.300781 C 242.070312 192.722656 235.398438 185.566406 226.148438 184.078125 C 214.859375 182.265625 204.101562 190.117188 197.058594 197.019531 C 194.96875 199.066406 192.902344 201.261719 190.902344 203.382812 C 189.921875 204.421875 188.9375 205.460938 187.949219 206.492188 C 187.203125 207.273438 185.960938 207.296875 185.179688 206.546875 C 184.398438 205.800781 184.371094 204.558594 185.125 203.777344 C 186.105469 202.753906 187.082031 201.722656 188.054688 200.6875 C 190.078125 198.542969 192.175781 196.320312 194.316406 194.21875 C 205.335938 183.414062 216.558594 178.566406 226.765625 180.207031 C 237.347656 181.90625 244.792969 189.898438 251.992188 197.628906 C 258.738281 204.867188 265.105469 211.703125 273.792969 213.789062 C 282.289062 215.832031 292.234375 212.675781 301.074219 205.128906 C 301.898438 204.429688 303.136719 204.527344 303.839844 205.347656 C 304.539062 206.171875 304.441406 207.410156 303.621094 208.113281 C 295.820312 214.765625 287.140625 218.316406 279.019531 218.316406 Z M 279.023438 218.320312 " fill-opacity="1" fill-rule="nonzero"/><path fill="#3a81d0" d="M 150.175781 225.078125 C 140.679688 225.078125 130.347656 222.609375 120.003906 217.710938 C 111.066406 213.472656 102.722656 207.960938 94.652344 202.636719 C 88.785156 198.765625 82.722656 194.757812 76.519531 191.308594 C 64.355469 184.546875 46.300781 177.496094 29.402344 182.320312 C 28.359375 182.617188 27.277344 182.015625 26.980469 180.972656 C 26.683594 179.929688 27.285156 178.847656 28.328125 178.550781 C 42.726562 174.4375 60.050781 177.667969 78.421875 187.882812 C 84.757812 191.40625 90.886719 195.449219 96.8125 199.363281 C 104.769531 204.617188 112.992188 210.046875 121.683594 214.167969 C 139.058594 222.402344 156.261719 223.417969 168.871094 216.964844 C 169.917969 216.429688 170.976562 215.824219 172.011719 215.167969 C 172.925781 214.585938 174.136719 214.855469 174.714844 215.769531 C 175.296875 216.683594 175.027344 217.894531 174.113281 218.472656 C 172.976562 219.199219 171.8125 219.863281 170.65625 220.457031 C 164.617188 223.550781 157.652344 225.082031 150.171875 225.082031 Z M 150.175781 225.078125 " fill-opacity="1" fill-rule="nonzero"/><g clip-path="url(#c6ccd20bb2)"><path fill="#225fa3" d="M 151.574219 249.339844 C 142.078125 249.339844 131.746094 246.867188 121.40625 241.96875 C 112.464844 237.730469 104.121094 232.226562 96.050781 226.894531 C 90.183594 223.023438 84.121094 219.019531 77.917969 215.570312 C 65.753906 208.804688 47.707031 201.753906 30.800781 206.578125 C 29.761719 206.878906 28.679688 206.273438 28.378906 205.230469 C 28.082031 204.1875 28.6875 203.105469 29.730469 202.808594 C 44.128906 198.699219 61.449219 201.925781 79.824219 212.140625 C 86.15625 215.664062 92.285156 219.707031 98.210938 223.625 C 106.167969 228.875 114.394531 234.308594 123.082031 238.425781 C 140.460938 246.660156 157.660156 247.679688 170.273438 241.222656 C 177.6875 237.429688 183.402344 231.371094 189.453125 224.957031 C 191.476562 222.808594 193.574219 220.585938 195.714844 218.484375 C 206.734375 207.679688 217.960938 202.835938 228.164062 204.476562 C 238.746094 206.171875 246.191406 214.167969 253.390625 221.894531 C 260.136719 229.132812 266.503906 235.96875 275.191406 238.058594 C 284.453125 240.285156 295.488281 236.285156 304.714844 227.367188 C 309.695312 222.546875 313.917969 216.785156 318.003906 211.210938 C 320.632812 207.621094 323.351562 203.910156 326.285156 200.433594 C 335.867188 189.054688 346.039062 182.902344 356.515625 182.164062 C 357.601562 182.082031 358.535156 182.898438 358.609375 183.976562 C 358.6875 185.054688 357.871094 185.996094 356.792969 186.070312 C 347.410156 186.738281 338.15625 192.414062 329.28125 202.957031 C 326.4375 206.335938 323.757812 209.992188 321.164062 213.527344 C 316.984375 219.234375 312.660156 225.132812 307.4375 230.183594 C 297.242188 240.042969 284.847656 244.410156 274.273438 241.871094 C 264.441406 239.507812 257.367188 231.914062 250.523438 224.566406 C 243.464844 216.988281 236.792969 209.832031 227.542969 208.347656 C 216.257812 206.535156 205.496094 214.382812 198.453125 221.289062 C 196.371094 223.332031 194.300781 225.527344 192.296875 227.648438 C 186.285156 234.023438 180.066406 240.617188 172.050781 244.714844 C 166.011719 247.808594 159.046875 249.339844 151.566406 249.339844 Z M 151.574219 249.339844 " fill-opacity="1" fill-rule="nonzero"/></g></svg>